# xmcd
# Track frame offsets:
# 150
# 14811
# 29715
# 48012
# 60735
# 76009
# 90189
# 103968
# 118735
# 135102
# 147438
# 161508
# 178079
# 193372
#
# Disc length: 2856 seconds
# Revision: 1
# Processed by: cddbd v1.5.1PL0 Copyright (c) Steve Scherf et al.
# Submitted via: VisiTrax 2.9.9.209 - For more info visit www.synapsa.com
#
DISCID=bd0b260e
DTITLE=Varius Artists - Mr. Country Music 07-04
DYEAR=2004
DGENRE=Country
TTITLE0=Jill King - 98.6 degress fallin'
TTITLE1=Jacob Lyda - Back in the swing og things
TTITLE2=Jon Russel - I'm not her to start the fire
TTITLE3=Robert Mizzell - Hard working hands
TTITLE4=Charlie Sizemore - Ballad of forty dollars
TTITLE5=Ann Tayler - She's got you
TTITLE6=D.B. Haris - Too much for me
TTITLE7=Lyle Foley - Contry D.J.
TTITLE8=Roger Wallace - From the time I get up
TTITLE9=Jett Williams - I am what I am
TTITLE10=Ron Shaw - Hang around woman
TTITLE11=Bobby Flores - Soft rain
TTITLE12=BR5-49 - That's what I get
TTITLE13=Josh Logan - It's waht I see
EXTD=YEAR: 2004
EXTT0=
EXTT1=
EXTT2=
EXTT3=
EXTT4=
EXTT5=
EXTT6=
EXTT7=
EXTT8=
EXTT9=
EXTT10=
EXTT11=
EXTT12=
EXTT13=
PLAYORDER=
